<svg width="131" height="24" viewBox="0 0 131 24" fill="none" xmlns="http://www.w3.org/2000/svg">
<path d="M8.67187 11.7C9.44364 13.2938 10.7324 14.5792 12.3281 15.3469C12.4458 15.4026 12.576 15.4267 12.7059 15.4169C12.8358 15.407 12.9608 15.3635 13.0687 15.2906L15.4125 13.725C15.516 13.6548 15.6357 13.6119 15.7603 13.6004C15.8849 13.589 16.0104 13.6092 16.125 13.6594L20.5125 15.5437C20.6625 15.6062 20.7877 15.7161 20.869 15.8567C20.9504 15.9973 20.9832 16.1608 20.9625 16.3219C20.8234 17.4073 20.2937 18.4048 19.4723 19.1278C18.6509 19.8508 17.5943 20.2498 16.5 20.25C13.1185 20.25 9.87548 18.9067 7.48439 16.5156C5.0933 14.1245 3.75 10.8815 3.75 7.5C3.75025 6.40575 4.1492 5.34908 4.87221 4.52771C5.59522 3.70634 6.59274 3.17656 7.67812 3.0375C7.83922 3.01681 8.00266 3.04964 8.14326 3.13096C8.28386 3.21227 8.39384 3.33755 8.45625 3.4875L10.3406 7.88438C10.3896 7.9972 10.4101 8.12035 10.4003 8.24296C10.3905 8.36558 10.3507 8.4839 10.2844 8.5875L8.71875 10.9688C8.64905 11.0765 8.60814 11.2002 8.59993 11.3283C8.59172 11.4563 8.61649 11.5843 8.67187 11.7V11.7Z" stroke="white" stroke-width="1.5" stroke-linecap="round" stroke-linejoin="round"/>
<path d="M40.822 6.81818V17H39.589V8.1108H39.5294L37.0436 9.76136V8.50852L39.589 6.81818H40.822ZM43.7503 17V16.1051L47.1111 12.4261C47.5055 11.9953 47.8303 11.6207 48.0855 11.3026C48.3407 10.9811 48.5296 10.6795 48.6523 10.3977C48.7782 10.1127 48.8412 9.81439 48.8412 9.50284C48.8412 9.14489 48.755 8.83499 48.5827 8.57315C48.4136 8.31132 48.1816 8.10914 47.8866 7.96662C47.5916 7.8241 47.2602 7.75284 46.8923 7.75284C46.5012 7.75284 46.1598 7.83404 45.8682 7.99645C45.5798 8.15554 45.3561 8.37926 45.197 8.66761C45.0412 8.95597 44.9633 9.29403 44.9633 9.68182H43.79C43.79 9.08523 43.9276 8.56155 44.2027 8.1108C44.4778 7.66004 44.8523 7.30871 45.3263 7.05682C45.8035 6.80492 46.3388 6.67898 46.9321 6.67898C47.5287 6.67898 48.0573 6.80492 48.518 7.05682C48.9787 7.30871 49.34 7.64844 49.6018 8.07599C49.8637 8.50355 49.9946 8.97917 49.9946 9.50284C49.9946 9.87737 49.9266 10.2436 49.7907 10.6016C49.6582 10.9562 49.4262 11.3523 49.0947 11.7898C48.7666 12.224 48.3109 12.7543 47.7275 13.3807L45.4406 15.8267V15.9062H50.1736V17H43.7503ZM55.6672 17.1392C55.0109 17.1392 54.4259 17.0265 53.9122 16.8011C53.4018 16.5758 52.9958 16.2625 52.6942 15.8615C52.3959 15.4571 52.2335 14.9882 52.2069 14.4545H53.4598C53.4863 14.7827 53.599 15.0661 53.7979 15.3047C53.9967 15.54 54.2569 15.7223 54.5784 15.8516C54.8999 15.9808 55.2562 16.0455 55.6473 16.0455C56.0848 16.0455 56.4726 15.9692 56.8106 15.8168C57.1487 15.6643 57.4139 15.4522 57.6061 15.1804C57.7983 14.9086 57.8944 14.5938 57.8944 14.2358C57.8944 13.8613 57.8016 13.5315 57.616 13.2464C57.4304 12.9581 57.1586 12.7327 56.8007 12.5703C56.4427 12.4079 56.0052 12.3267 55.4882 12.3267H54.6729V11.233H55.4882C55.8925 11.233 56.2472 11.16 56.5521 11.0142C56.8604 10.8684 57.1006 10.6629 57.273 10.3977C57.4487 10.1326 57.5365 9.82102 57.5365 9.46307C57.5365 9.11837 57.4603 8.81842 57.3078 8.56321C57.1553 8.308 56.9399 8.10914 56.6615 7.96662C56.3864 7.8241 56.0616 7.75284 55.6871 7.75284C55.3357 7.75284 55.0043 7.81747 54.6927 7.94673C54.3845 8.07268 54.1326 8.25663 53.9371 8.49858C53.7415 8.73722 53.6354 9.02557 53.6189 9.36364H52.4257C52.4456 8.83002 52.6063 8.36269 52.9079 7.96165C53.2095 7.55729 53.604 7.24242 54.0912 7.01705C54.5817 6.79167 55.1203 6.67898 55.7069 6.67898C56.3367 6.67898 56.8769 6.80658 57.3277 7.06179C57.7784 7.31368 58.1248 7.64678 58.3667 8.06108C58.6087 8.47538 58.7297 8.92282 58.7297 9.40341C58.7297 9.9768 58.5789 10.4657 58.2773 10.87C57.979 11.2744 57.5729 11.5545 57.0592 11.7102V11.7898C57.7022 11.8958 58.2043 12.1693 58.5656 12.6101C58.9269 13.0476 59.1075 13.5895 59.1075 14.2358C59.1075 14.7893 58.9567 15.2865 58.6551 15.7273C58.3568 16.1648 57.9491 16.5095 57.4321 16.7614C56.915 17.0133 56.3267 17.1392 55.6672 17.1392ZM65.5358 11.3622V12.456H61.0812V11.3622H65.5358ZM67.3417 14.9119V13.8977L71.8161 6.81818H72.5519V8.3892H72.0548L68.6741 13.7386V13.8182H74.6997V14.9119H67.3417ZM72.1343 17V14.6037V14.1314V6.81818H73.3076V17H72.1343ZM79.7446 17.1392C79.1613 17.1392 78.6359 17.0232 78.1686 16.7912C77.7013 16.5592 77.3267 16.241 77.045 15.8366C76.7633 15.4323 76.6092 14.9716 76.5827 14.4545H77.7758C77.8222 14.9152 78.031 15.2964 78.4023 15.598C78.7768 15.8963 79.2242 16.0455 79.7446 16.0455C80.1622 16.0455 80.5334 15.9477 80.8582 15.7521C81.1863 15.5566 81.4432 15.2881 81.6288 14.9467C81.8177 14.602 81.9122 14.2126 81.9122 13.7784C81.9122 13.3343 81.8144 12.9382 81.6189 12.5902C81.4266 12.2389 81.1615 11.9621 80.8234 11.7599C80.4854 11.5578 80.0992 11.455 79.665 11.4517C79.3535 11.4484 79.0336 11.4964 78.7055 11.5959C78.3774 11.692 78.1073 11.8163 77.8952 11.9688L76.7417 11.8295L77.3582 6.81818H82.648V7.91193H78.3923L78.0344 10.9148H78.094C78.3028 10.7491 78.5647 10.6115 78.8795 10.5021C79.1944 10.3928 79.5225 10.3381 79.8639 10.3381C80.487 10.3381 81.0422 10.4872 81.5294 10.7855C82.0199 11.0805 82.4044 11.4848 82.6828 11.9986C82.9645 12.5123 83.1054 13.099 83.1054 13.7585C83.1054 14.4081 82.9595 14.9882 82.6679 15.4986C82.3795 16.0057 81.9818 16.4067 81.4747 16.7017C80.9676 16.9934 80.3909 17.1392 79.7446 17.1392ZM88.461 17.1392C88.0434 17.1326 87.6258 17.053 87.2082 16.9006C86.7906 16.7481 86.4094 16.4912 86.0647 16.13C85.72 15.7654 85.4433 15.2732 85.2345 14.6534C85.0257 14.0303 84.9213 13.2481 84.9213 12.3068C84.9213 11.4053 85.0058 10.6065 85.1748 9.91051C85.3438 9.21117 85.5891 8.62287 85.9106 8.1456C86.2321 7.66501 86.6199 7.30043 87.074 7.05185C87.5313 6.80327 88.0467 6.67898 88.6201 6.67898C89.1902 6.67898 89.6973 6.79332 90.1414 7.02202C90.5889 7.2474 90.9535 7.56226 91.2352 7.96662C91.5169 8.37098 91.6992 8.83665 91.782 9.36364H90.569C90.4563 8.90625 90.2375 8.52675 89.9127 8.22514C89.5879 7.92353 89.157 7.77273 88.6201 7.77273C87.8313 7.77273 87.2098 8.11577 86.7558 8.80185C86.305 9.48793 86.078 10.4508 86.0747 11.6903H86.1542C86.3398 11.4086 86.5602 11.1683 86.8154 10.9695C87.074 10.7673 87.359 10.6115 87.6705 10.5021C87.9821 10.3928 88.3119 10.3381 88.6599 10.3381C89.2432 10.3381 89.7768 10.4839 90.2607 10.7756C90.7446 11.0639 91.1324 11.4633 91.4241 11.9737C91.7158 12.4808 91.8616 13.0625 91.8616 13.7188C91.8616 14.3485 91.7207 14.9252 91.439 15.4489C91.1573 15.9692 90.7612 16.3835 90.2508 16.6918C89.7437 16.9967 89.1471 17.1458 88.461 17.1392ZM88.461 16.0455C88.8786 16.0455 89.2532 15.9411 89.5846 15.7322C89.9194 15.5234 90.1829 15.2434 90.3751 14.892C90.5706 14.5407 90.6684 14.1496 90.6684 13.7188C90.6684 13.2978 90.574 12.915 90.385 12.5703C90.1994 12.2223 89.9426 11.9455 89.6144 11.7401C89.2896 11.5346 88.9184 11.4318 88.5008 11.4318C88.1859 11.4318 87.8926 11.4948 87.6208 11.6207C87.349 11.7434 87.1104 11.9124 86.9049 12.1278C86.7027 12.3433 86.5436 12.5902 86.4276 12.8686C86.3116 13.1437 86.2536 13.4337 86.2536 13.7386C86.2536 14.143 86.3481 14.5208 86.537 14.8722C86.7293 15.2235 86.9911 15.5069 87.3225 15.7223C87.6573 15.9377 88.0368 16.0455 88.461 16.0455ZM94.1349 17L98.6888 7.99148V7.91193H93.4388V6.81818H99.9616V7.97159L95.4275 17H94.1349ZM109.014 17.1392C108.331 17.1392 107.728 17.0182 107.204 16.7763C106.684 16.531 106.278 16.1946 105.986 15.767C105.694 15.3362 105.55 14.8456 105.553 14.2955C105.55 13.8646 105.635 13.4669 105.807 13.1023C105.979 12.7344 106.215 12.4278 106.513 12.1825C106.814 11.9339 107.151 11.7765 107.522 11.7102V11.6506C107.035 11.5246 106.647 11.2512 106.359 10.8303C106.07 10.406 105.928 9.92377 105.931 9.38352C105.928 8.86648 106.059 8.40412 106.324 7.99645C106.589 7.58878 106.954 7.26728 107.418 7.03196C107.885 6.79664 108.417 6.67898 109.014 6.67898C109.604 6.67898 110.131 6.79664 110.595 7.03196C111.059 7.26728 111.423 7.58878 111.688 7.99645C111.957 8.40412 112.093 8.86648 112.096 9.38352C112.093 9.92377 111.945 10.406 111.653 10.8303C111.365 11.2512 110.982 11.5246 110.505 11.6506V11.7102C110.873 11.7765 111.204 11.9339 111.499 12.1825C111.794 12.4278 112.03 12.7344 112.205 13.1023C112.381 13.4669 112.47 13.8646 112.474 14.2955C112.47 14.8456 112.321 15.3362 112.026 15.767C111.735 16.1946 111.329 16.531 110.808 16.7763C110.291 17.0182 109.693 17.1392 109.014 17.1392ZM109.014 16.0455C109.474 16.0455 109.872 15.9709 110.207 15.8217C110.542 15.6726 110.8 15.4621 110.982 15.1903C111.165 14.9186 111.257 14.6004 111.261 14.2358C111.257 13.8513 111.158 13.5116 110.962 13.2166C110.767 12.9216 110.5 12.6896 110.162 12.5206C109.827 12.3516 109.444 12.267 109.014 12.267C108.579 12.267 108.192 12.3516 107.85 12.5206C107.512 12.6896 107.245 12.9216 107.05 13.2166C106.858 13.5116 106.763 13.8513 106.766 14.2358C106.763 14.6004 106.851 14.9186 107.03 15.1903C107.212 15.4621 107.472 15.6726 107.81 15.8217C108.149 15.9709 108.55 16.0455 109.014 16.0455ZM109.014 11.2131C109.378 11.2131 109.701 11.1402 109.983 10.9943C110.268 10.8485 110.492 10.6446 110.654 10.3828C110.817 10.121 110.899 9.81439 110.903 9.46307C110.899 9.11837 110.818 8.81842 110.659 8.56321C110.5 8.30469 110.28 8.10582 109.998 7.96662C109.716 7.8241 109.388 7.75284 109.014 7.75284C108.632 7.75284 108.299 7.8241 108.014 7.96662C107.729 8.10582 107.509 8.30469 107.353 8.56321C107.197 8.81842 107.121 9.11837 107.124 9.46307C107.121 9.81439 107.199 10.121 107.358 10.3828C107.52 10.6446 107.744 10.8485 108.029 10.9943C108.314 11.1402 108.642 11.2131 109.014 11.2131ZM117.621 6.67898C118.038 6.68229 118.456 6.76184 118.873 6.91761C119.291 7.07339 119.672 7.33191 120.017 7.69318C120.362 8.05114 120.638 8.54001 120.847 9.1598C121.056 9.77959 121.16 10.5568 121.16 11.4915C121.16 12.3963 121.074 13.2 120.902 13.9027C120.733 14.602 120.488 15.192 120.166 15.6726C119.848 16.1532 119.46 16.5178 119.003 16.7663C118.549 17.0149 118.035 17.1392 117.462 17.1392C116.891 17.1392 116.383 17.0265 115.935 16.8011C115.491 16.5724 115.127 16.2559 114.842 15.8516C114.56 15.4439 114.379 14.9716 114.3 14.4347H115.513C115.622 14.902 115.839 15.2881 116.164 15.593C116.492 15.8946 116.925 16.0455 117.462 16.0455C118.247 16.0455 118.867 15.7024 119.321 15.0163C119.778 14.3303 120.007 13.3608 120.007 12.108H119.927C119.742 12.3864 119.521 12.6267 119.266 12.8288C119.011 13.031 118.728 13.1868 118.416 13.2962C118.105 13.4055 117.773 13.4602 117.422 13.4602C116.838 13.4602 116.303 13.3161 115.816 13.0277C115.332 12.736 114.944 12.3366 114.653 11.8295C114.364 11.3191 114.22 10.7358 114.22 10.0795C114.22 9.45644 114.359 8.88636 114.638 8.36932C114.919 7.84896 115.314 7.43466 115.821 7.12642C116.331 6.81818 116.931 6.66903 117.621 6.67898ZM117.621 7.77273C117.203 7.77273 116.827 7.87713 116.492 8.08594C116.161 8.29143 115.897 8.56984 115.702 8.92116C115.509 9.26918 115.413 9.6553 115.413 10.0795C115.413 10.5038 115.506 10.8899 115.692 11.2379C115.881 11.5826 116.137 11.8577 116.462 12.0632C116.79 12.2654 117.163 12.3665 117.581 12.3665C117.896 12.3665 118.189 12.3052 118.461 12.1825C118.733 12.0566 118.97 11.8859 119.172 11.6705C119.377 11.4517 119.538 11.2048 119.654 10.9297C119.77 10.6513 119.828 10.3613 119.828 10.0597C119.828 9.66193 119.732 9.28906 119.54 8.94105C119.351 8.59304 119.089 8.31132 118.754 8.09588C118.423 7.88044 118.045 7.77273 117.621 7.77273ZM126.437 17.1392C125.687 17.1392 125.049 16.9354 124.522 16.5277C123.995 16.1167 123.593 15.5218 123.314 14.7429C123.036 13.9607 122.897 13.0161 122.897 11.9091C122.897 10.8087 123.036 9.86908 123.314 9.0902C123.596 8.308 124 7.71141 124.527 7.30043C125.058 6.88613 125.694 6.67898 126.437 6.67898C127.179 6.67898 127.814 6.88613 128.341 7.30043C128.871 7.71141 129.275 8.308 129.554 9.0902C129.835 9.86908 129.976 10.8087 129.976 11.9091C129.976 13.0161 129.837 13.9607 129.559 14.7429C129.28 15.5218 128.878 16.1167 128.351 16.5277C127.824 16.9354 127.186 17.1392 126.437 17.1392ZM126.437 16.0455C127.179 16.0455 127.756 15.6875 128.167 14.9716C128.578 14.2557 128.783 13.2348 128.783 11.9091C128.783 11.0275 128.689 10.2768 128.5 9.65696C128.314 9.03717 128.046 8.56487 127.694 8.24006C127.346 7.91525 126.927 7.75284 126.437 7.75284C125.701 7.75284 125.126 8.11577 124.711 8.84162C124.297 9.56416 124.09 10.5866 124.09 11.9091C124.09 12.7907 124.183 13.5398 124.368 14.1562C124.554 14.7727 124.821 15.2417 125.169 15.5632C125.52 15.8847 125.943 16.0455 126.437 16.0455Z" fill="white"/>
</svg>
