<svg width="404" height="44" viewBox="0 0 404 44" fill="none" xmlns="http://www.w3.org/2000/svg">
<rect width="44" height="44" rx="4" fill="#EDEFF6"/>
<path d="M30.25 22H13.75" stroke="#6D737A" stroke-width="1.5" stroke-linecap="round" stroke-linejoin="round"/>
<path d="M20.5 15.25L13.75 22L20.5 28.75" stroke="#6D737A" stroke-width="1.5" stroke-linecap="round" stroke-linejoin="round"/>
<rect x="60" width="44" height="44" rx="3" fill="#4A60A1"/>
<path d="M83.9233 16.3636V28H81.8153V18.4148H81.7472L79.0256 20.1534V18.2216L81.9176 16.3636H83.9233Z" fill="white"/>
<rect x="120" width="44" height="44" rx="3" fill="#EDEFF6"/>
<path d="M138.065 28V26.4773L142.105 22.517C142.491 22.1269 142.813 21.7803 143.071 21.4773C143.329 21.1742 143.522 20.8807 143.651 20.5966C143.779 20.3125 143.844 20.0095 143.844 19.6875C143.844 19.3201 143.76 19.0057 143.594 18.7443C143.427 18.4792 143.198 18.2746 142.906 18.1307C142.615 17.9867 142.283 17.9148 141.912 17.9148C141.529 17.9148 141.194 17.9943 140.906 18.1534C140.618 18.3087 140.395 18.5303 140.236 18.8182C140.08 19.1061 140.003 19.4489 140.003 19.8466H137.997C137.997 19.108 138.166 18.4659 138.503 17.9205C138.84 17.375 139.304 16.9527 139.895 16.6534C140.49 16.3542 141.171 16.2045 141.94 16.2045C142.721 16.2045 143.406 16.3504 143.997 16.642C144.588 16.9337 145.046 17.3333 145.372 17.8409C145.702 18.3485 145.866 18.928 145.866 19.5795C145.866 20.0152 145.783 20.4432 145.616 20.8636C145.45 21.2841 145.156 21.75 144.736 22.2614C144.319 22.7727 143.734 23.392 142.98 24.1193L140.974 26.1591V26.2386H146.043V28H138.065Z" fill="#4A60A1"/>
<rect x="180" width="44" height="44" rx="3" fill="#EDEFF6"/>
<path d="M201.999 28.1591C201.181 28.1591 200.454 28.0189 199.817 27.7386C199.185 27.4583 198.685 27.0682 198.317 26.5682C197.95 26.0682 197.755 25.4905 197.732 24.8352H199.869C199.888 25.1496 199.992 25.4242 200.181 25.6591C200.371 25.8902 200.622 26.0701 200.937 26.1989C201.251 26.3277 201.603 26.392 201.994 26.392C202.41 26.392 202.78 26.3201 203.102 26.1761C203.424 26.0284 203.675 25.8239 203.857 25.5625C204.039 25.3011 204.128 25 204.124 24.6591C204.128 24.3068 204.037 23.9962 203.852 23.7273C203.666 23.4583 203.397 23.2481 203.045 23.0966C202.696 22.9451 202.276 22.8693 201.783 22.8693H200.755V21.2443H201.783C202.189 21.2443 202.543 21.1742 202.846 21.0341C203.153 20.8939 203.393 20.697 203.567 20.4432C203.742 20.1856 203.827 19.8883 203.823 19.5511C203.827 19.2216 203.753 18.9356 203.602 18.6932C203.454 18.447 203.244 18.2557 202.971 18.1193C202.702 17.983 202.386 17.9148 202.022 17.9148C201.666 17.9148 201.336 17.9792 201.033 18.108C200.73 18.2367 200.486 18.4205 200.3 18.6591C200.115 18.8939 200.016 19.1742 200.005 19.5H197.977C197.992 18.8485 198.179 18.2765 198.539 17.7841C198.903 17.2879 199.388 16.9015 199.994 16.625C200.6 16.3447 201.28 16.2045 202.033 16.2045C202.81 16.2045 203.484 16.3504 204.056 16.642C204.632 16.9299 205.077 17.3182 205.391 17.8068C205.706 18.2955 205.863 18.8352 205.863 19.4261C205.867 20.0814 205.674 20.6307 205.283 21.0739C204.897 21.517 204.389 21.8068 203.761 21.9432V22.0341C204.579 22.1477 205.206 22.4508 205.641 22.9432C206.081 23.4318 206.299 24.0398 206.295 24.767C206.295 25.4186 206.109 26.0019 205.738 26.517C205.371 27.0284 204.863 27.4299 204.215 27.7216C203.571 28.0133 202.833 28.1591 201.999 28.1591Z" fill="#4A60A1"/>
<rect x="240" width="44" height="44" rx="3" fill="#EDEFF6"/>
<path d="M257.363 28.125C257.018 28.125 256.723 28.0038 256.477 27.7614C256.23 27.5189 256.109 27.2235 256.113 26.875C256.109 26.5341 256.23 26.2424 256.477 26C256.723 25.7576 257.018 25.6364 257.363 25.6364C257.696 25.6364 257.986 25.7576 258.232 26C258.482 26.2424 258.609 26.5341 258.613 26.875C258.609 27.1061 258.549 27.3163 258.431 27.5057C258.317 27.6951 258.166 27.8466 257.977 27.9602C257.791 28.0701 257.586 28.125 257.363 28.125ZM262.004 28.125C261.659 28.125 261.363 28.0038 261.117 27.7614C260.871 27.5189 260.75 27.2235 260.754 26.875C260.75 26.5341 260.871 26.2424 261.117 26C261.363 25.7576 261.659 25.6364 262.004 25.6364C262.337 25.6364 262.627 25.7576 262.873 26C263.123 26.2424 263.25 26.5341 263.254 26.875C263.25 27.1061 263.189 27.3163 263.072 27.5057C262.958 27.6951 262.807 27.8466 262.617 27.9602C262.432 28.0701 262.227 28.125 262.004 28.125ZM266.644 28.125C266.299 28.125 266.004 28.0038 265.758 27.7614C265.512 27.5189 265.39 27.2235 265.394 26.875C265.39 26.5341 265.512 26.2424 265.758 26C266.004 25.7576 266.299 25.6364 266.644 25.6364C266.978 25.6364 267.267 25.7576 267.513 26C267.763 26.2424 267.89 26.5341 267.894 26.875C267.89 27.1061 267.83 27.3163 267.712 27.5057C267.599 27.6951 267.447 27.8466 267.258 27.9602C267.072 28.0701 266.868 28.125 266.644 28.125Z" fill="#4A60A1"/>
<rect x="300" width="44" height="44" rx="3" fill="#EDEFF6"/>
<path d="M316.689 28.1591C315.931 28.1591 315.253 28.017 314.655 27.733C314.056 27.4451 313.581 27.0511 313.229 26.5511C312.88 26.0511 312.695 25.4792 312.672 24.8352H314.717C314.755 25.3125 314.962 25.7027 315.337 26.0057C315.712 26.3049 316.162 26.4545 316.689 26.4545C317.102 26.4545 317.469 26.3598 317.791 26.1705C318.113 25.9811 318.367 25.7178 318.553 25.3807C318.738 25.0436 318.829 24.6591 318.825 24.2273C318.829 23.7879 318.736 23.3977 318.547 23.0568C318.357 22.7159 318.098 22.4489 317.768 22.2557C317.439 22.0587 317.06 21.9602 316.632 21.9602C316.284 21.9564 315.941 22.0208 315.604 22.1534C315.267 22.286 315 22.4602 314.803 22.6761L312.899 22.3636L313.507 16.3636H320.257V18.125H315.251L314.916 21.2102H314.984C315.2 20.9564 315.505 20.7462 315.899 20.5795C316.293 20.4091 316.725 20.3239 317.195 20.3239C317.899 20.3239 318.528 20.4905 319.081 20.8239C319.634 21.1534 320.07 21.608 320.388 22.1875C320.706 22.767 320.865 23.4299 320.865 24.1761C320.865 24.9451 320.687 25.6307 320.331 26.233C319.979 26.8314 319.488 27.303 318.859 27.6477C318.234 27.9886 317.511 28.1591 316.689 28.1591ZM322.558 25.8409V24.1648L327.496 16.3636H328.893V18.75H328.041L324.717 24.017V24.108H331.609V25.8409H322.558ZM328.109 28V25.3295L328.132 24.5795V16.3636H330.121V28H328.109Z" fill="#4A60A1"/>
<rect x="360" width="44" height="44" rx="4" fill="#4A60A1"/>
<path d="M373.75 22H390.25" stroke="white" stroke-width="1.5" stroke-linecap="round" stroke-linejoin="round"/>
<path d="M383.5 15.25L390.25 22L383.5 28.75" stroke="white" stroke-width="1.5" stroke-linecap="round" stroke-linejoin="round"/>
</svg>
