<svg width="117" height="31" viewBox="0 0 117 31" fill="none" xmlns="http://www.w3.org/2000/svg">
<rect x="0.666626" y="0.191895" width="29.9798" height="29.9798" rx="2.14141" fill="#EDEFF6"/>
<path d="M10.303 17.8584C11.7813 17.8584 12.9798 16.66 12.9798 15.1816C12.9798 13.7033 11.7813 12.5049 10.303 12.5049C8.82465 12.5049 7.62622 13.7033 7.62622 15.1816C7.62622 16.66 8.82465 17.8584 10.303 17.8584Z" stroke="#4A60A1" stroke-width="1.38209" stroke-linecap="round" stroke-linejoin="round"/>
<path d="M19.6716 23.8811C21.15 23.8811 22.3484 22.6827 22.3484 21.2044C22.3484 19.726 21.15 18.5276 19.6716 18.5276C18.1933 18.5276 16.9949 19.726 16.9949 21.2044C16.9949 22.6827 18.1933 23.8811 19.6716 23.8811Z" stroke="#4A60A1" stroke-width="1.38209" stroke-linecap="round" stroke-linejoin="round"/>
<path d="M19.6716 11.8357C21.15 11.8357 22.3484 10.6373 22.3484 9.15895C22.3484 7.68061 21.15 6.48218 19.6716 6.48218C18.1933 6.48218 16.9949 7.68061 16.9949 9.15895C16.9949 10.6373 18.1933 11.8357 19.6716 11.8357Z" stroke="#4A60A1" stroke-width="1.38209" stroke-linecap="round" stroke-linejoin="round"/>
<path d="M17.4216 10.606L12.5532 13.7344" stroke="#4A60A1" stroke-width="1.38209" stroke-linecap="round" stroke-linejoin="round"/>
<path d="M12.5532 16.6289L17.4216 19.7574" stroke="#4A60A1" stroke-width="1.38209" stroke-linecap="round" stroke-linejoin="round"/>
<rect x="43.4949" y="0.191895" width="29.9798" height="29.9798" rx="2.14141" fill="#EDEFF6"/>
<path d="M58.4848 22.5428C58.4848 22.5428 50.1199 17.8584 50.1199 12.1703C50.1199 11.1648 50.4683 10.1903 51.1058 9.41262C51.7433 8.63498 52.6305 8.10224 53.6166 7.90503C54.6026 7.70783 55.6265 7.85834 56.5141 8.33096C57.4016 8.80359 58.098 9.56913 58.4848 10.4973V10.4973C58.8715 9.56913 59.5679 8.80359 60.4555 8.33096C61.3431 7.85834 62.367 7.70783 63.353 7.90503C64.339 8.10224 65.2263 8.63498 65.8638 9.41262C66.5013 10.1903 66.8497 11.1648 66.8497 12.1703C66.8497 17.8584 58.4848 22.5428 58.4848 22.5428Z" stroke="#4A60A1" stroke-width="1.38209" stroke-linecap="round" stroke-linejoin="round"/>
<rect x="86.3232" y="0.191895" width="29.9798" height="29.9798" rx="2.14141" fill="#EDEFF6"/>
<path d="M93.952 15.1816H108.674" stroke="#4A60A1" stroke-width="1.38209" stroke-linecap="round" stroke-linejoin="round"/>
<path d="M101.313 7.82056V22.5428" stroke="#4A60A1" stroke-width="1.38209" stroke-linecap="round" stroke-linejoin="round"/>
</svg>
