<svg width="116" height="30" viewBox="0 0 116 30" fill="none" xmlns="http://www.w3.org/2000/svg">
<rect x="0.36377" y="0.0100708" width="29.9798" height="29.9798" rx="2.14141" fill="#EDEFF6"/>
<path d="M10 17.6768C11.4783 17.6768 12.6768 16.4783 12.6768 15C12.6768 13.5217 11.4783 12.3232 10 12.3232C8.52167 12.3232 7.32324 13.5217 7.32324 15C7.32324 16.4783 8.52167 17.6768 10 17.6768Z" stroke="#4A60A1" stroke-width="1.38209" stroke-linecap="round" stroke-linejoin="round"/>
<path d="M19.3687 23.6995C20.847 23.6995 22.0454 22.5011 22.0454 21.0227C22.0454 19.5444 20.847 18.3459 19.3687 18.3459C17.8903 18.3459 16.6919 19.5444 16.6919 21.0227C16.6919 22.5011 17.8903 23.6995 19.3687 23.6995Z" stroke="#4A60A1" stroke-width="1.38209" stroke-linecap="round" stroke-linejoin="round"/>
<path d="M19.3687 11.654C20.847 11.654 22.0454 10.4556 22.0454 8.97724C22.0454 7.49891 20.847 6.30048 19.3687 6.30048C17.8903 6.30048 16.6919 7.49891 16.6919 8.97724C16.6919 10.4556 17.8903 11.654 19.3687 11.654Z" stroke="#4A60A1" stroke-width="1.38209" stroke-linecap="round" stroke-linejoin="round"/>
<path d="M17.1184 10.4243L12.25 13.5528" stroke="#4A60A1" stroke-width="1.38209" stroke-linecap="round" stroke-linejoin="round"/>
<path d="M12.25 16.4471L17.1184 19.5756" stroke="#4A60A1" stroke-width="1.38209" stroke-linecap="round" stroke-linejoin="round"/>
<rect x="43.1919" y="0.0100708" width="29.9798" height="29.9798" rx="2.14141" fill="#EDEFF6"/>
<path d="M58.1818 22.3611C58.1818 22.3611 49.8169 17.6768 49.8169 11.9887C49.8169 10.9831 50.1653 10.0086 50.8028 9.23098C51.4403 8.45334 52.3276 7.9206 53.3136 7.72339C54.2996 7.52619 55.3235 7.6767 56.2111 8.14932C57.0986 8.62195 57.795 9.38749 58.1818 10.3157V10.3157C58.5685 9.38749 59.2649 8.62195 60.1525 8.14932C61.0401 7.6767 62.064 7.52619 63.05 7.72339C64.036 7.9206 64.9233 8.45334 65.5608 9.23098C66.1983 10.0086 66.5467 10.9831 66.5467 11.9887C66.5467 17.6768 58.1818 22.3611 58.1818 22.3611Z" stroke="#4A60A1" stroke-width="1.38209" stroke-linecap="round" stroke-linejoin="round"/>
<rect x="86.0205" y="0.0100708" width="29.9798" height="29.9798" rx="2.14141" fill="#EDEFF6"/>
<path d="M93.6489 15H108.371" stroke="#4A60A1" stroke-width="1.38209" stroke-linecap="round" stroke-linejoin="round"/>
<path d="M101.01 7.63892V22.3611" stroke="#4A60A1" stroke-width="1.38209" stroke-linecap="round" stroke-linejoin="round"/>
</svg>
