<svg width="252" height="28" viewBox="0 0 252 28" fill="none" xmlns="http://www.w3.org/2000/svg">
<path d="M3.5 10.5V21.875C3.5 22.1071 3.59219 22.3296 3.75628 22.4937C3.92038 22.6578 4.14294 22.75 4.375 22.75H23.625C23.8571 22.75 24.0796 22.6578 24.2437 22.4937C24.4078 22.3296 24.5 22.1071 24.5 21.875V10.5L14 3.5L3.5 10.5Z" stroke="white" stroke-width="1.5" stroke-linecap="round" stroke-linejoin="round"/>
<path d="M12.0859 16.625L3.77344 22.4984" stroke="white" stroke-width="1.5" stroke-linecap="round" stroke-linejoin="round"/>
<path d="M24.2266 22.4984L15.9141 16.625" stroke="white" stroke-width="1.5" stroke-linecap="round" stroke-linejoin="round"/>
<path d="M24.5 10.5L15.9141 16.625H12.0859L3.5 10.5" stroke="white" stroke-width="1.5" stroke-linecap="round" stroke-linejoin="round"/>
<path d="M40.9211 19V8.81818H47.7819V10.593H43.0738V13.0192H47.4289V14.794H43.0738V17.2251H47.8018V19H40.9211ZM49.4536 19V11.3636H51.472V12.7109H51.5615C51.7206 12.2635 51.9858 11.9105 52.357 11.652C52.7282 11.3935 53.1723 11.2642 53.6894 11.2642C54.213 11.2642 54.6588 11.3951 55.0267 11.657C55.3946 11.9155 55.6399 12.2668 55.7625 12.7109H55.8421C55.9978 12.2734 56.2796 11.9238 56.6872 11.6619C57.0982 11.3968 57.5838 11.2642 58.1439 11.2642C58.8565 11.2642 59.4349 11.4912 59.879 11.9453C60.3264 12.3961 60.5502 13.0357 60.5502 13.8643V19H58.4372V14.282C58.4372 13.8577 58.3245 13.5395 58.0992 13.3274C57.8738 13.1153 57.5921 13.0092 57.254 13.0092C56.8695 13.0092 56.5696 13.1319 56.3541 13.3771C56.1387 13.6191 56.031 13.9389 56.031 14.3366V19H53.9777V14.2372C53.9777 13.8627 53.87 13.5644 53.6546 13.3423C53.4424 13.1203 53.1624 13.0092 52.8144 13.0092C52.579 13.0092 52.3669 13.0689 52.178 13.1882C51.9924 13.3042 51.8449 13.4683 51.7355 13.6804C51.6262 13.8892 51.5715 14.1345 51.5715 14.4162V19H49.4536ZM64.4007 19.1442C63.9134 19.1442 63.4793 19.0597 63.0981 18.8906C62.7169 18.7183 62.4153 18.4647 62.1933 18.13C61.9745 17.7919 61.8651 17.371 61.8651 16.8672C61.8651 16.4429 61.943 16.0866 62.0988 15.7983C62.2546 15.5099 62.4667 15.2779 62.7352 15.1023C63.0036 14.9266 63.3086 14.794 63.6499 14.7045C63.9946 14.6151 64.3559 14.5521 64.7338 14.5156C65.1779 14.4692 65.5358 14.4261 65.8076 14.3864C66.0794 14.3433 66.2766 14.2803 66.3992 14.1974C66.5219 14.1146 66.5832 13.992 66.5832 13.8295V13.7997C66.5832 13.4848 66.4838 13.2412 66.2849 13.0689C66.0893 12.8965 65.8109 12.8104 65.4497 12.8104C65.0685 12.8104 64.7652 12.8949 64.5399 13.0639C64.3145 13.2296 64.1653 13.4384 64.0924 13.6903L62.1336 13.5312C62.233 13.0672 62.4286 12.6662 62.7203 12.3281C63.0119 11.9867 63.3881 11.7249 63.8488 11.5426C64.3128 11.357 64.8498 11.2642 65.4596 11.2642C65.8838 11.2642 66.2899 11.3139 66.6776 11.4134C67.0687 11.5128 67.4151 11.6669 67.7167 11.8757C68.0216 12.0845 68.2619 12.353 68.4376 12.6811C68.6133 13.0059 68.7011 13.3954 68.7011 13.8494V19H66.6926V17.9411H66.6329C66.5103 18.1797 66.3462 18.3902 66.1407 18.5724C65.9352 18.7514 65.6883 18.8923 65.3999 18.995C65.1116 19.0945 64.7785 19.1442 64.4007 19.1442ZM65.0072 17.6825C65.3187 17.6825 65.5938 17.6212 65.8325 17.4986C66.0711 17.3726 66.2584 17.2036 66.3943 16.9915C66.5302 16.7794 66.5981 16.5391 66.5981 16.2706V15.4602C66.5318 15.5033 66.4407 15.5431 66.3247 15.5795C66.212 15.6127 66.0844 15.6442 65.9419 15.674C65.7993 15.7005 65.6568 15.7254 65.5143 15.7486C65.3718 15.7685 65.2425 15.7867 65.1265 15.8033C64.8779 15.8397 64.6608 15.8977 64.4752 15.9773C64.2896 16.0568 64.1454 16.1645 64.0427 16.3004C63.94 16.433 63.8886 16.5987 63.8886 16.7976C63.8886 17.0859 63.993 17.3063 64.2018 17.4588C64.4139 17.608 64.6824 17.6825 65.0072 17.6825ZM70.3442 19V11.3636H72.4621V19H70.3442ZM71.4081 10.3793C71.0932 10.3793 70.8231 10.2749 70.5977 10.0661C70.3757 9.85393 70.2646 9.60038 70.2646 9.3054C70.2646 9.01373 70.3757 8.76349 70.5977 8.55469C70.8231 8.34257 71.0932 8.23651 71.4081 8.23651C71.723 8.23651 71.9914 8.34257 72.2135 8.55469C72.4389 8.76349 72.5516 9.01373 72.5516 9.3054C72.5516 9.60038 72.4389 9.85393 72.2135 10.0661C71.9914 10.2749 71.723 10.3793 71.4081 10.3793ZM76.2765 8.81818V19H74.1586V8.81818H76.2765ZM86.1104 15.7486V11.3636H88.2282V19H86.1949V17.6129H86.1153C85.943 18.0604 85.6563 18.42 85.2552 18.6918C84.8575 18.9635 84.372 19.0994 83.7986 19.0994C83.2881 19.0994 82.839 18.9834 82.4513 18.7514C82.0635 18.5194 81.7602 18.1896 81.5415 17.7621C81.326 17.3345 81.2166 16.8224 81.2133 16.2259V11.3636H83.3312V15.848C83.3345 16.2988 83.4555 16.6551 83.6942 16.9169C83.9328 17.1787 84.2526 17.3097 84.6537 17.3097C84.9089 17.3097 85.1475 17.2517 85.3696 17.1357C85.5916 17.0163 85.7706 16.8407 85.9065 16.6087C86.0457 16.3767 86.1137 16.09 86.1104 15.7486ZM96.276 13.5412L94.3371 13.6605C94.3039 13.4948 94.2327 13.3456 94.1233 13.2131C94.0139 13.0772 93.8698 12.9695 93.6908 12.8899C93.5151 12.8071 93.3047 12.7656 93.0594 12.7656C92.7313 12.7656 92.4545 12.8352 92.2291 12.9744C92.0038 13.1103 91.8911 13.2926 91.8911 13.5213C91.8911 13.7036 91.964 13.8577 92.1098 13.9837C92.2557 14.1096 92.5059 14.2107 92.8605 14.2869L94.2426 14.5653C94.9851 14.7178 95.5386 14.9631 95.9031 15.3011C96.2677 15.6392 96.45 16.0833 96.45 16.6335C96.45 17.134 96.3025 17.5732 96.0075 17.951C95.7159 18.3288 95.3148 18.6238 94.8044 18.8359C94.2973 19.0447 93.7123 19.1491 93.0494 19.1491C92.0386 19.1491 91.2332 18.9387 90.6333 18.5178C90.0367 18.0935 89.687 17.5168 89.5843 16.7876L91.6673 16.6783C91.7303 16.9865 91.8828 17.2218 92.1247 17.3842C92.3667 17.5433 92.6766 17.6229 93.0544 17.6229C93.4256 17.6229 93.7239 17.5516 93.9493 17.4091C94.178 17.2633 94.294 17.076 94.2973 16.8473C94.294 16.6551 94.2128 16.4976 94.0537 16.375C93.8946 16.2491 93.6494 16.1529 93.3179 16.0866L91.9955 15.8232C91.2497 15.674 90.6946 15.4155 90.33 15.0476C89.9687 14.6797 89.7881 14.2107 89.7881 13.6406C89.7881 13.1501 89.9207 12.7275 90.1858 12.3729C90.4543 12.0182 90.8305 11.7448 91.3144 11.5526C91.8016 11.3603 92.3717 11.2642 93.0246 11.2642C93.9891 11.2642 94.7481 11.468 95.3016 11.8757C95.8584 12.2834 96.1832 12.8385 96.276 13.5412ZM103.201 19.1442C102.714 19.1442 102.28 19.0597 101.899 18.8906C101.518 18.7183 101.216 18.4647 100.994 18.13C100.775 17.7919 100.666 17.371 100.666 16.8672C100.666 16.4429 100.744 16.0866 100.9 15.7983C101.055 15.5099 101.267 15.2779 101.536 15.1023C101.804 14.9266 102.109 14.794 102.451 14.7045C102.795 14.6151 103.157 14.5521 103.535 14.5156C103.979 14.4692 104.337 14.4261 104.608 14.3864C104.88 14.3433 105.077 14.2803 105.2 14.1974C105.323 14.1146 105.384 13.992 105.384 13.8295V13.7997C105.384 13.4848 105.285 13.2412 105.086 13.0689C104.89 12.8965 104.612 12.8104 104.25 12.8104C103.869 12.8104 103.566 12.8949 103.341 13.0639C103.115 13.2296 102.966 13.4384 102.893 13.6903L100.934 13.5312C101.034 13.0672 101.229 12.6662 101.521 12.3281C101.813 11.9867 102.189 11.7249 102.65 11.5426C103.114 11.357 103.651 11.2642 104.26 11.2642C104.685 11.2642 105.091 11.3139 105.478 11.4134C105.87 11.5128 106.216 11.6669 106.517 11.8757C106.822 12.0845 107.063 12.353 107.238 12.6811C107.414 13.0059 107.502 13.3954 107.502 13.8494V19H105.493V17.9411H105.434C105.311 18.1797 105.147 18.3902 104.941 18.5724C104.736 18.7514 104.489 18.8923 104.201 18.995C103.912 19.0945 103.579 19.1442 103.201 19.1442ZM103.808 17.6825C104.12 17.6825 104.395 17.6212 104.633 17.4986C104.872 17.3726 105.059 17.2036 105.195 16.9915C105.331 16.7794 105.399 16.5391 105.399 16.2706V15.4602C105.333 15.5033 105.241 15.5431 105.125 15.5795C105.013 15.6127 104.885 15.6442 104.743 15.674C104.6 15.7005 104.458 15.7254 104.315 15.7486C104.173 15.7685 104.043 15.7867 103.927 15.8033C103.679 15.8397 103.462 15.8977 103.276 15.9773C103.09 16.0568 102.946 16.1645 102.843 16.3004C102.741 16.433 102.689 16.5987 102.689 16.7976C102.689 17.0859 102.794 17.3063 103.003 17.4588C103.215 17.608 103.483 17.6825 103.808 17.6825ZM113.207 11.3636V12.9545H108.608V11.3636H113.207ZM109.652 9.53409H111.77V16.6534C111.77 16.849 111.8 17.0014 111.859 17.1108C111.919 17.2169 112.002 17.2914 112.108 17.3345C112.217 17.3776 112.343 17.3991 112.486 17.3991C112.585 17.3991 112.685 17.3909 112.784 17.3743C112.884 17.3544 112.96 17.3395 113.013 17.3295L113.346 18.9055C113.24 18.9387 113.091 18.9768 112.899 19.0199C112.706 19.0663 112.473 19.0945 112.198 19.1044C111.687 19.1243 111.24 19.0563 110.855 18.9006C110.474 18.7448 110.177 18.5028 109.965 18.1747C109.753 17.8466 109.649 17.4323 109.652 16.9318V9.53409ZM119.065 19.1293C118.736 19.1293 118.455 19.0133 118.219 18.7812C117.987 18.5459 117.871 18.2642 117.871 17.9361C117.871 17.6113 117.987 17.3329 118.219 17.1009C118.455 16.8688 118.736 16.7528 119.065 16.7528C119.383 16.7528 119.661 16.8688 119.9 17.1009C120.138 17.3329 120.258 17.6113 120.258 17.9361C120.258 18.1548 120.201 18.3554 120.089 18.5376C119.979 18.7166 119.835 18.8608 119.656 18.9702C119.477 19.0762 119.28 19.1293 119.065 19.1293ZM119.065 13.7798C118.736 13.7798 118.455 13.6638 118.219 13.4318C117.987 13.1998 117.871 12.9181 117.871 12.5866C117.871 12.2618 117.987 11.9851 118.219 11.7564C118.455 11.5244 118.736 11.4084 119.065 11.4084C119.383 11.4084 119.661 11.5244 119.9 11.7564C120.138 11.9851 120.258 12.2618 120.258 12.5866C120.258 12.8087 120.201 13.0109 120.089 13.1932C119.979 13.3722 119.835 13.5147 119.656 13.6207C119.477 13.7268 119.28 13.7798 119.065 13.7798ZM128.667 19.1591C127.931 19.1591 127.297 18.9967 126.763 18.6719C126.233 18.3438 125.823 17.8864 125.535 17.2997C125.25 16.7098 125.108 16.0237 125.108 15.2415C125.108 14.4593 125.25 13.7699 125.535 13.1733C125.823 12.5734 126.224 12.1061 126.738 11.7713C127.255 11.4332 127.858 11.2642 128.548 11.2642C128.946 11.2642 129.338 11.3305 129.726 11.4631C130.114 11.5956 130.467 11.8111 130.785 12.1094C131.103 12.4044 131.357 12.7955 131.546 13.2827C131.735 13.7699 131.829 14.3698 131.829 15.0824V15.5795H125.943V14.5653H130.636C130.636 14.1345 130.55 13.75 130.377 13.4119C130.208 13.0739 129.966 12.8071 129.652 12.6115C129.34 12.416 128.972 12.3182 128.548 12.3182C128.081 12.3182 127.676 12.4342 127.335 12.6662C126.997 12.8949 126.737 13.1932 126.554 13.5611C126.372 13.929 126.281 14.3234 126.281 14.7443V15.4205C126.281 15.9972 126.38 16.486 126.579 16.8871C126.781 17.2848 127.061 17.5881 127.419 17.7969C127.777 18.0024 128.193 18.1051 128.667 18.1051C128.975 18.1051 129.254 18.062 129.502 17.9759C129.754 17.8864 129.971 17.7538 130.154 17.5781C130.336 17.3991 130.477 17.1771 130.576 16.9119L131.71 17.2301C131.59 17.6146 131.39 17.9527 131.108 18.2443C130.826 18.5327 130.478 18.758 130.064 18.9205C129.65 19.0795 129.184 19.1591 128.667 19.1591ZM134.284 11.3636L136.113 14.4858L137.943 11.3636H139.295L136.829 15.1818L139.295 19H137.943L136.113 16.0369L134.284 19H132.932L135.358 15.1818L132.932 11.3636H134.284ZM143.217 19.179C142.733 19.179 142.293 19.0878 141.899 18.9055C141.505 18.7199 141.191 18.4531 140.959 18.1051C140.727 17.7538 140.611 17.3295 140.611 16.8324C140.611 16.3949 140.698 16.0402 140.87 15.7685C141.042 15.4934 141.273 15.2779 141.561 15.1222C141.849 14.9664 142.168 14.8504 142.516 14.7741C142.867 14.6946 143.22 14.6316 143.574 14.5852C144.039 14.5256 144.415 14.4808 144.703 14.451C144.995 14.4179 145.207 14.3632 145.339 14.2869C145.475 14.2107 145.543 14.0781 145.543 13.8892V13.8494C145.543 13.3589 145.409 12.9777 145.141 12.706C144.875 12.4342 144.473 12.2983 143.932 12.2983C143.372 12.2983 142.933 12.4209 142.615 12.6662C142.297 12.9115 142.073 13.1733 141.944 13.4517L140.83 13.054C141.029 12.59 141.294 12.2287 141.626 11.9702C141.96 11.7083 142.325 11.526 142.719 11.4233C143.117 11.3172 143.508 11.2642 143.893 11.2642C144.138 11.2642 144.42 11.294 144.738 11.3537C145.059 11.41 145.369 11.5277 145.668 11.7067C145.969 11.8857 146.219 12.1558 146.418 12.517C146.617 12.8783 146.717 13.3622 146.717 13.9688V19H145.543V17.9659H145.484C145.404 18.1316 145.271 18.3089 145.086 18.4979C144.9 18.6868 144.653 18.8475 144.345 18.9801C144.037 19.1127 143.661 19.179 143.217 19.179ZM143.396 18.125C143.86 18.125 144.251 18.0339 144.569 17.8516C144.89 17.6693 145.132 17.4339 145.295 17.1456C145.46 16.8572 145.543 16.554 145.543 16.2358V15.1619C145.494 15.2216 145.384 15.2763 145.215 15.326C145.049 15.3724 144.857 15.4138 144.638 15.4503C144.423 15.4834 144.213 15.5133 144.007 15.5398C143.805 15.563 143.641 15.5829 143.515 15.5994C143.21 15.6392 142.925 15.7038 142.66 15.7933C142.398 15.8795 142.186 16.0104 142.023 16.1861C141.864 16.3584 141.785 16.5937 141.785 16.892C141.785 17.2997 141.936 17.608 142.237 17.8168C142.542 18.0223 142.928 18.125 143.396 18.125ZM148.858 19V11.3636H149.992V12.5568H150.091C150.25 12.1491 150.507 11.8326 150.862 11.6072C151.216 11.3786 151.642 11.2642 152.139 11.2642C152.643 11.2642 153.062 11.3786 153.397 11.6072C153.735 11.8326 153.999 12.1491 154.188 12.5568H154.267C154.463 12.1624 154.756 11.8492 155.147 11.6172C155.538 11.3819 156.007 11.2642 156.554 11.2642C157.237 11.2642 157.795 11.478 158.229 11.9055C158.664 12.3298 158.881 12.991 158.881 13.8892V19H157.707V13.8892C157.707 13.3258 157.553 12.9231 157.245 12.6811C156.937 12.4392 156.574 12.3182 156.156 12.3182C155.619 12.3182 155.203 12.4806 154.908 12.8054C154.613 13.1269 154.466 13.5346 154.466 14.0284V19H153.273V13.7699C153.273 13.3357 153.132 12.986 152.85 12.7209C152.569 12.4524 152.206 12.3182 151.761 12.3182C151.457 12.3182 151.171 12.3994 150.906 12.5618C150.645 12.7242 150.432 12.9496 150.27 13.2379C150.111 13.523 150.031 13.8527 150.031 14.2273V19H148.858ZM161.026 21.8636V11.3636H162.16V12.5767H162.299C162.385 12.4441 162.504 12.2751 162.657 12.0696C162.812 11.8608 163.035 11.6752 163.323 11.5128C163.615 11.3471 164.009 11.2642 164.506 11.2642C165.149 11.2642 165.716 11.425 166.206 11.7464C166.697 12.0679 167.08 12.5237 167.355 13.1136C167.63 13.7036 167.767 14.3996 167.767 15.2017C167.767 16.0104 167.63 16.7114 167.355 17.3047C167.08 17.8946 166.699 18.352 166.211 18.6768C165.724 18.9983 165.162 19.1591 164.526 19.1591C164.035 19.1591 163.643 19.0779 163.348 18.9155C163.053 18.7498 162.826 18.5625 162.667 18.3537C162.508 18.1416 162.385 17.9659 162.299 17.8267H162.199V21.8636H161.026ZM162.179 15.1818C162.179 15.7585 162.264 16.2673 162.433 16.7081C162.602 17.1456 162.849 17.4886 163.174 17.7372C163.499 17.9825 163.896 18.1051 164.367 18.1051C164.857 18.1051 165.267 17.9759 165.595 17.7173C165.926 17.4555 166.175 17.1042 166.341 16.6634C166.51 16.2192 166.594 15.7254 166.594 15.1818C166.594 14.6449 166.511 14.161 166.346 13.7301C166.183 13.2959 165.936 12.9529 165.605 12.701C165.277 12.4458 164.864 12.3182 164.367 12.3182C163.89 12.3182 163.489 12.4392 163.164 12.6811C162.839 12.9197 162.594 13.2545 162.428 13.6854C162.262 14.1129 162.179 14.6117 162.179 15.1818ZM170.731 8.81818V19H169.557V8.81818H170.731ZM176.081 19.1591C175.345 19.1591 174.711 18.9967 174.177 18.6719C173.647 18.3438 173.237 17.8864 172.949 17.2997C172.664 16.7098 172.522 16.0237 172.522 15.2415C172.522 14.4593 172.664 13.7699 172.949 13.1733C173.237 12.5734 173.639 12.1061 174.152 11.7713C174.669 11.4332 175.273 11.2642 175.962 11.2642C176.36 11.2642 176.752 11.3305 177.14 11.4631C177.528 11.5956 177.881 11.8111 178.199 12.1094C178.517 12.4044 178.771 12.7955 178.96 13.2827C179.149 13.7699 179.243 14.3698 179.243 15.0824V15.5795H173.357V14.5653H178.05C178.05 14.1345 177.964 13.75 177.791 13.4119C177.622 13.0739 177.38 12.8071 177.066 12.6115C176.754 12.416 176.386 12.3182 175.962 12.3182C175.495 12.3182 175.09 12.4342 174.749 12.6662C174.411 12.8949 174.151 13.1932 173.968 13.5611C173.786 13.929 173.695 14.3234 173.695 14.7443V15.4205C173.695 15.9972 173.794 16.486 173.993 16.8871C174.195 17.2848 174.475 17.5881 174.833 17.7969C175.191 18.0024 175.607 18.1051 176.081 18.1051C176.389 18.1051 176.668 18.062 176.916 17.9759C177.168 17.8864 177.385 17.7538 177.568 17.5781C177.75 17.3991 177.891 17.1771 177.99 16.9119L179.124 17.2301C179.005 17.6146 178.804 17.9527 178.522 18.2443C178.241 18.5327 177.893 18.758 177.478 18.9205C177.064 19.0795 176.598 19.1591 176.081 19.1591ZM186.894 21.6847C185.88 21.6847 184.984 21.5455 184.205 21.267C183.426 20.992 182.771 20.5859 182.241 20.049C181.711 19.5121 181.31 18.8542 181.038 18.0753C180.766 17.2964 180.63 16.4048 180.63 15.4006C180.63 14.4295 180.768 13.5611 181.043 12.7955C181.321 12.0298 181.724 11.3802 182.251 10.8466C182.781 10.3097 183.424 9.90033 184.18 9.61861C184.939 9.33688 185.797 9.19602 186.755 9.19602C187.687 9.19602 188.502 9.34848 189.201 9.65341C189.904 9.95502 190.491 10.3643 190.961 10.8814C191.435 11.3951 191.79 11.9735 192.025 12.6165C192.264 13.2595 192.383 13.9223 192.383 14.6051C192.383 15.0857 192.36 15.5729 192.313 16.0668C192.267 16.5606 192.169 17.0147 192.02 17.429C191.871 17.84 191.641 18.1714 191.329 18.4233C191.021 18.6752 190.603 18.8011 190.076 18.8011C189.844 18.8011 189.589 18.7647 189.311 18.6918C189.032 18.6188 188.785 18.4979 188.57 18.3288C188.354 18.1598 188.227 17.9328 188.187 17.6477H188.127C188.048 17.84 187.925 18.0223 187.759 18.1946C187.597 18.367 187.383 18.5045 187.118 18.6072C186.856 18.71 186.536 18.7547 186.159 18.7415C185.728 18.7249 185.348 18.6288 185.02 18.4531C184.692 18.2741 184.417 18.0322 184.195 17.7273C183.976 17.419 183.81 17.0627 183.698 16.6584C183.588 16.2507 183.534 15.8116 183.534 15.3409C183.534 14.8935 183.6 14.4841 183.733 14.1129C183.865 13.7417 184.049 13.4169 184.284 13.1385C184.523 12.8601 184.801 12.638 185.12 12.4723C185.441 12.3033 185.787 12.1989 186.159 12.1591C186.49 12.1259 186.792 12.1409 187.063 12.2038C187.335 12.2635 187.559 12.3546 187.735 12.4773C187.91 12.5966 188.021 12.7292 188.068 12.875H188.127V12.3182H189.181V16.8125C189.181 17.0909 189.259 17.3362 189.415 17.5483C189.571 17.7604 189.798 17.8665 190.096 17.8665C190.434 17.8665 190.693 17.7505 190.872 17.5185C191.054 17.2865 191.178 16.9285 191.245 16.4446C191.314 15.9607 191.349 15.3409 191.349 14.5852C191.349 14.1411 191.288 13.7036 191.165 13.2727C191.046 12.8385 190.863 12.4325 190.618 12.0547C190.376 11.6768 190.07 11.3437 189.698 11.0554C189.327 10.767 188.891 10.5417 188.391 10.3793C187.894 10.2135 187.329 10.1307 186.696 10.1307C185.917 10.1307 185.219 10.2517 184.603 10.4936C183.989 10.7322 183.467 11.0819 183.036 11.5426C182.609 12 182.282 12.5568 182.057 13.2131C181.835 13.866 181.724 14.6084 181.724 15.4403C181.724 16.2855 181.835 17.0362 182.057 17.6925C182.282 18.3487 182.614 18.9022 183.051 19.353C183.492 19.8037 184.037 20.1451 184.687 20.3771C185.337 20.6125 186.086 20.7301 186.934 20.7301C187.299 20.7301 187.658 20.6953 188.013 20.6257C188.368 20.5561 188.681 20.4799 188.953 20.397C189.224 20.3142 189.42 20.2528 189.539 20.2131L189.818 21.1278C189.612 21.214 189.344 21.3002 189.012 21.3864C188.684 21.4725 188.333 21.5438 187.958 21.6001C187.587 21.6565 187.233 21.6847 186.894 21.6847ZM186.318 17.7273C186.762 17.7273 187.121 17.6378 187.397 17.4588C187.672 17.2798 187.872 17.0097 187.998 16.6484C188.124 16.2872 188.187 15.8314 188.187 15.2812C188.187 14.7244 188.117 14.2902 187.978 13.9787C187.839 13.6671 187.634 13.4484 187.362 13.3224C187.09 13.1965 186.755 13.1335 186.358 13.1335C185.98 13.1335 185.657 13.233 185.388 13.4318C185.123 13.6274 184.919 13.8892 184.777 14.2173C184.637 14.5421 184.568 14.8968 184.568 15.2812C184.568 15.7055 184.624 16.1049 184.737 16.4794C184.849 16.8506 185.033 17.1522 185.289 17.3842C185.544 17.6129 185.887 17.7273 186.318 17.7273ZM194.139 19V11.3636H195.273V12.5568H195.372C195.531 12.1491 195.788 11.8326 196.143 11.6072C196.497 11.3786 196.923 11.2642 197.421 11.2642C197.924 11.2642 198.344 11.3786 198.678 11.6072C199.016 11.8326 199.28 12.1491 199.469 12.5568H199.548C199.744 12.1624 200.037 11.8492 200.428 11.6172C200.819 11.3819 201.288 11.2642 201.835 11.2642C202.518 11.2642 203.077 11.478 203.511 11.9055C203.945 12.3298 204.162 12.991 204.162 13.8892V19H202.989V13.8892C202.989 13.3258 202.835 12.9231 202.526 12.6811C202.218 12.4392 201.855 12.3182 201.438 12.3182C200.901 12.3182 200.485 12.4806 200.19 12.8054C199.895 13.1269 199.747 13.5346 199.747 14.0284V19H198.554V13.7699C198.554 13.3357 198.413 12.986 198.131 12.7209C197.85 12.4524 197.487 12.3182 197.043 12.3182C196.738 12.3182 196.453 12.3994 196.188 12.5618C195.926 12.7242 195.714 12.9496 195.551 13.2379C195.392 13.523 195.313 13.8527 195.313 14.2273V19H194.139ZM208.554 19.179C208.071 19.179 207.631 19.0878 207.237 18.9055C206.843 18.7199 206.529 18.4531 206.297 18.1051C206.065 17.7538 205.949 17.3295 205.949 16.8324C205.949 16.3949 206.035 16.0402 206.208 15.7685C206.38 15.4934 206.611 15.2779 206.899 15.1222C207.187 14.9664 207.505 14.8504 207.853 14.7741C208.205 14.6946 208.558 14.6316 208.912 14.5852C209.376 14.5256 209.753 14.4808 210.041 14.451C210.333 14.4179 210.545 14.3632 210.677 14.2869C210.813 14.2107 210.881 14.0781 210.881 13.8892V13.8494C210.881 13.3589 210.747 12.9777 210.478 12.706C210.213 12.4342 209.811 12.2983 209.27 12.2983C208.71 12.2983 208.271 12.4209 207.953 12.6662C207.635 12.9115 207.411 13.1733 207.282 13.4517L206.168 13.054C206.367 12.59 206.632 12.2287 206.964 11.9702C207.298 11.7083 207.663 11.526 208.057 11.4233C208.455 11.3172 208.846 11.2642 209.231 11.2642C209.476 11.2642 209.758 11.294 210.076 11.3537C210.397 11.41 210.707 11.5277 211.005 11.7067C211.307 11.8857 211.557 12.1558 211.756 12.517C211.955 12.8783 212.054 13.3622 212.054 13.9688V19H210.881V17.9659H210.821C210.742 18.1316 210.609 18.3089 210.424 18.4979C210.238 18.6868 209.991 18.8475 209.683 18.9801C209.375 19.1127 208.999 19.179 208.554 19.179ZM208.733 18.125C209.197 18.125 209.589 18.0339 209.907 17.8516C210.228 17.6693 210.47 17.4339 210.633 17.1456C210.798 16.8572 210.881 16.554 210.881 16.2358V15.1619C210.831 15.2216 210.722 15.2763 210.553 15.326C210.387 15.3724 210.195 15.4138 209.976 15.4503C209.761 15.4834 209.55 15.5133 209.345 15.5398C209.143 15.563 208.979 15.5829 208.853 15.5994C208.548 15.6392 208.263 15.7038 207.998 15.7933C207.736 15.8795 207.524 16.0104 207.361 16.1861C207.202 16.3584 207.123 16.5937 207.123 16.892C207.123 17.2997 207.273 17.608 207.575 17.8168C207.88 18.0223 208.266 18.125 208.733 18.125ZM214.196 19V11.3636H215.369V19H214.196ZM214.793 10.0909C214.564 10.0909 214.367 10.013 214.201 9.85724C214.039 9.70147 213.957 9.5142 213.957 9.29545C213.957 9.0767 214.039 8.88944 214.201 8.73366C214.367 8.57789 214.564 8.5 214.793 8.5C215.021 8.5 215.217 8.57789 215.379 8.73366C215.545 8.88944 215.628 9.0767 215.628 9.29545C215.628 9.5142 215.545 9.70147 215.379 9.85724C215.217 10.013 215.021 10.0909 214.793 10.0909ZM218.691 8.81818V19H217.518V8.81818H218.691ZM221.696 19.0795C221.45 19.0795 221.24 18.9917 221.064 18.8161C220.889 18.6404 220.801 18.4299 220.801 18.1847C220.801 17.9394 220.889 17.7289 221.064 17.5533C221.24 17.3776 221.45 17.2898 221.696 17.2898C221.941 17.2898 222.151 17.3776 222.327 17.5533C222.503 17.7289 222.59 17.9394 222.59 18.1847C222.59 18.3471 222.549 18.4962 222.466 18.6321C222.387 18.768 222.279 18.8774 222.143 18.9602C222.01 19.0398 221.861 19.0795 221.696 19.0795ZM227.798 19.1591C227.082 19.1591 226.466 18.9901 225.949 18.652C225.432 18.3139 225.034 17.8482 224.756 17.255C224.477 16.6617 224.338 15.9839 224.338 15.2216C224.338 14.446 224.48 13.7616 224.766 13.1683C225.054 12.5717 225.455 12.1061 225.969 11.7713C226.486 11.4332 227.089 11.2642 227.778 11.2642C228.315 11.2642 228.799 11.3636 229.23 11.5625C229.661 11.7614 230.014 12.0398 230.289 12.3977C230.564 12.7557 230.735 13.1733 230.801 13.6506H229.628C229.538 13.3026 229.339 12.9943 229.031 12.7259C228.726 12.4541 228.315 12.3182 227.798 12.3182C227.341 12.3182 226.94 12.4375 226.595 12.6761C226.254 12.9115 225.987 13.2446 225.795 13.6754C225.606 14.103 225.511 14.6051 225.511 15.1818C225.511 15.7718 225.604 16.2855 225.79 16.723C225.979 17.1605 226.244 17.5002 226.585 17.7422C226.93 17.9841 227.334 18.1051 227.798 18.1051C228.103 18.1051 228.38 18.0521 228.628 17.946C228.877 17.84 229.088 17.6875 229.26 17.4886C229.432 17.2898 229.555 17.0511 229.628 16.7727H230.801C230.735 17.2235 230.571 17.6295 230.309 17.9908C230.05 18.3487 229.707 18.6338 229.28 18.8459C228.855 19.0547 228.362 19.1591 227.798 19.1591ZM235.619 19.1591C234.929 19.1591 234.324 18.995 233.804 18.6669C233.287 18.3388 232.882 17.8797 232.591 17.2898C232.302 16.6998 232.158 16.0104 232.158 15.2216C232.158 14.4261 232.302 13.7318 232.591 13.1385C232.882 12.5452 233.287 12.0845 233.804 11.7564C234.324 11.4283 234.929 11.2642 235.619 11.2642C236.308 11.2642 236.911 11.4283 237.428 11.7564C237.949 12.0845 238.353 12.5452 238.641 13.1385C238.933 13.7318 239.079 14.4261 239.079 15.2216C239.079 16.0104 238.933 16.6998 238.641 17.2898C238.353 17.8797 237.949 18.3388 237.428 18.6669C236.911 18.995 236.308 19.1591 235.619 19.1591ZM235.619 18.1051C236.142 18.1051 236.573 17.9709 236.911 17.7024C237.249 17.4339 237.499 17.081 237.662 16.6435C237.824 16.206 237.905 15.732 237.905 15.2216C237.905 14.7112 237.824 14.2356 237.662 13.7947C237.499 13.3539 237.249 12.9976 236.911 12.7259C236.573 12.4541 236.142 12.3182 235.619 12.3182C235.095 12.3182 234.664 12.4541 234.326 12.7259C233.988 12.9976 233.738 13.3539 233.575 13.7947C233.413 14.2356 233.332 14.7112 233.332 15.2216C233.332 15.732 233.413 16.206 233.575 16.6435C233.738 17.081 233.988 17.4339 234.326 17.7024C234.664 17.9709 235.095 18.1051 235.619 18.1051ZM240.87 19V11.3636H242.003V12.5568H242.103C242.262 12.1491 242.519 11.8326 242.873 11.6072C243.228 11.3786 243.654 11.2642 244.151 11.2642C244.655 11.2642 245.074 11.3786 245.409 11.6072C245.747 11.8326 246.01 12.1491 246.199 12.5568H246.279C246.474 12.1624 246.768 11.8492 247.159 11.6172C247.55 11.3819 248.019 11.2642 248.566 11.2642C249.249 11.2642 249.807 11.478 250.241 11.9055C250.675 12.3298 250.892 12.991 250.892 13.8892V19H249.719V13.8892C249.719 13.3258 249.565 12.9231 249.257 12.6811C248.949 12.4392 248.586 12.3182 248.168 12.3182C247.631 12.3182 247.215 12.4806 246.92 12.8054C246.625 13.1269 246.478 13.5346 246.478 14.0284V19H245.285V13.7699C245.285 13.3357 245.144 12.986 244.862 12.7209C244.58 12.4524 244.217 12.3182 243.773 12.3182C243.468 12.3182 243.183 12.3994 242.918 12.5618C242.656 12.7242 242.444 12.9496 242.282 13.2379C242.123 13.523 242.043 13.8527 242.043 14.2273V19H240.87Z" fill="white"/>
</svg>
